<svg xmlns="http://www.w3.org/2000/svg" xmlns:svg="http://www.w3.org/2000/svg" id="svg2985" width="384" height="64" version="1.1"><metadata id="metadata2990"/><g id="layer1" transform="translate(0,32)"><path style="fill:#000;fill-opacity:1;stroke:none" id="path2995" d="m 10,-9 v -14 h 2 v 14 z"/><path style="fill:#000;fill-opacity:1;stroke:none" id="path3765" d="m 12,-22 c 0,0 3,-1 5,1 2,2 5,1 5,1 v 8 c 0,0 -3,1 -5,-1 -2,-2 -5,-1 -5,-1 z"/><path style="fill:#000;fill-opacity:1;stroke:none" id="path3807" d="m 42,-23 h 4 v 14 h -4 z"/><path style="fill:#000;fill-opacity:1;stroke:none" id="path3817" d="m 49,-23 h 4 v 14 h -4 z"/><path style="fill:#000;fill-opacity:1;stroke:none" id="path3821" d="m 109,-9 h 6 l 4,-4 v -6 l -4,-4 h -6 l -4,4 v 6 z"/><path style="fill:#000;fill-opacity:1;stroke:none" id="path3823" d="m 74,-23 12,7 -12,7 z"/><path style="fill:#000;fill-opacity:1;stroke:none" id="path3910" d="m 201,-23 h 7 v 2 h -5 v 10 h 10 v -5 h 2 v 7 h -14 z"/><path style="fill:#000;fill-opacity:1;stroke:none" id="path3912" d="m 207,-16.5 4.5,-4.5 -2,-2 h 5.5 v 5.5 l -2,-2 -4.5,4.5 H 207 Z"/><path style="fill:#000;fill-opacity:1;stroke:none" id="path3936" d="m 151,-23 v 5.5 l -2,-2 -2.5,2.5 -0.65587,-0.655869 L 145,-18.5 l 2.5,-2.5 -2,-2 z"/><path id="path3938" d="m 137,-23 h 5.5 l -2,2 2.5,2.5 -1.5,1.5 -2.5,-2.5 -2,2 z" style="fill:#000;fill-opacity:1;stroke:none"/><path style="fill:#000;fill-opacity:1;stroke:none" id="path3940" d="m 137,-9 v -5.5 l 2,2 2.5,-2.5 1.5,1.5 -2.5,2.5 2,2 z"/><path id="path4108" d="m 151,-9 h -5.5 l 2,-2 -2.5,-2.5 0.65587,-0.65587 L 146.5,-15 l 2.5,2.5 2,-2 z" style="fill:#000;fill-opacity:1;stroke:none"/><path style="fill:#fff;fill-opacity:1;stroke:none" id="path2995-7" d="M 10,23 V 9 h 2 v 14 z"/><path style="fill:#fff;fill-opacity:1;stroke:none" id="path3765-8" d="m 12,10 c 0,0 3,-1 5,1 2,2 5,1 5,1 v 8 c 0,0 -3,1 -5,-1 -2,-2 -5,-1 -5,-1 z"/><path style="fill:#fff;fill-opacity:1;stroke:none" id="path3807-1" d="m 42,9 h 4 v 14 h -4 z"/><path style="fill:#fff;fill-opacity:1;stroke:none" id="path3817-3" d="m 49,9 h 4 v 14 h -4 z"/><path style="fill:#fff;fill-opacity:1;stroke:none" id="path3821-4" d="m 109,23 h 6 l 4,-4 v -6 l -4,-4 h -6 l -4,4 v 6 z"/><path style="fill:#fff;fill-opacity:1;stroke:none" id="path3823-2" d="m 74,9 12,7 -12,7 z"/><path style="fill:#fff;fill-opacity:1;stroke:none" id="path3936-2" d="M 177,15 V 9.5 l 2,2 2.5,-2.5 0.65587,0.655869 L 183,10.5 l -2.5,2.5 2,2 z"/><path id="path3938-7" d="m 175,15 h -5.5 l 2,-2 -2.5,-2.5 1.5,-1.5 2.5,2.5 2,-2 z" style="fill:#fff;fill-opacity:1;stroke:none"/><path style="fill:#fff;fill-opacity:1;stroke:none" id="path3940-7" d="m 175,17 v 5.5 l -2,-2 -2.5,2.5 -1.5,-1.5 2.5,-2.5 -2,-2 z"/><path id="path4011" d="m 177,17 h 5.5 l -2,2 2.5,2.5 -0.65587,0.65587 L 181.5,23 179,20.5 l -2,2 z" style="fill:#fff;fill-opacity:1;stroke:none"/><circle style="fill:#2eaedf;fill-opacity:1;stroke:none" id="path2987" cx="240" cy="-16" r="10"/><path style="fill:#fff;fill-opacity:1;stroke:none" id="path3757" d="m 234,-14.5 4,4 7,-7 v -4 l -7,7 -2,-2 z"/><path style="color:#000;font-style:normal;font-variant:normal;font-weight:400;font-stretch:normal;font-size:medium;line-height:normal;font-family:Sans;-inkscape-font-specification:Sans;text-indent:0;text-align:start;text-decoration:none;text-decoration-line:none;letter-spacing:normal;word-spacing:normal;text-transform:none;writing-mode:lr-tb;direction:ltr;baseline-shift:baseline;text-anchor:start;display:inline;overflow:visible;visibility:visible;fill:#a0a0a0;fill-opacity:1;stroke:none;stroke-width:3;marker:none;enable-background:accumulate" id="path3857" d="m 268,-28 c 0,0 -5.0562,12.7972 -6.24914,15.622841 -1.19293,2.825642 0.18937,3.610092 2.77165,2.58919 C 267.10479,-10.808871 303,-25 303,-25 v -3 l -38,15 6,-15 z"/><path style="fill:#fff;fill-opacity:1;stroke:none" id="path3865" d="m 265,-13 6,-15 h 32 z"/><path style="color:#000;font-style:normal;font-variant:normal;font-weight:400;font-stretch:normal;font-size:medium;line-height:normal;font-family:Sans;-inkscape-font-specification:Sans;text-indent:0;text-align:start;text-decoration:none;text-decoration-line:none;letter-spacing:normal;word-spacing:normal;text-transform:none;writing-mode:lr-tb;direction:ltr;baseline-shift:baseline;text-anchor:start;display:inline;overflow:visible;visibility:visible;fill:#a0a0a0;fill-opacity:1;stroke:none;stroke-width:3;marker:none;enable-background:accumulate" id="path3857-3" d="m 295,4 c 0,0 5.0562,12.7972 6.24914,15.622841 1.19293,2.825642 -0.18937,3.610092 -2.77165,2.58919 C 295.89521,21.191129 260,7 260,7 V 4 l 38,15 -6,-15 z"/><path style="fill:#fff;fill-opacity:1;stroke:none" id="path3865-8" d="M 298,19 292,4 h -32 z"/><ellipse style="fill:#fff;fill-opacity:1;stroke:#a0a0a0;stroke-width:.99990094;stroke-miterlimit:4;stroke-dasharray:none;stroke-opacity:1" id="path3975" cx="328.916" cy="-10.416" rx="3.5" ry="2"/><ellipse style="fill:#fff;fill-opacity:1;stroke:#a0a0a0;stroke-width:1.35779715;stroke-miterlimit:4;stroke-dasharray:none;stroke-opacity:1" id="path3975-6" cx="335.717" cy="-14.45" rx="4.171" ry="2.071"/><ellipse style="fill:#fff;fill-opacity:1;stroke:#a0a0a0;stroke-width:1.82647014;stroke-miterlimit:4;stroke-dasharray:none;stroke-opacity:1" id="path3975-6-6" cx="341.5" cy="-21" rx="5.5" ry="3.095"/><ellipse style="fill:#fff;fill-opacity:1;stroke:#a0a0a0;stroke-width:.99990094;stroke-miterlimit:4;stroke-dasharray:none;stroke-opacity:1" id="path3975-1" cx="-363.084" cy="21.584" rx="3.5" ry="2" transform="scale(-1,1)"/><ellipse style="fill:#fff;fill-opacity:1;stroke:#a0a0a0;stroke-width:1.35779715;stroke-miterlimit:4;stroke-dasharray:none;stroke-opacity:1" id="path3975-6-3" cx="-356.283" cy="17.55" rx="4.171" ry="2.071" transform="scale(-1,1)"/><ellipse style="fill:#fff;fill-opacity:1;stroke:#a0a0a0;stroke-width:1.82647014;stroke-miterlimit:4;stroke-dasharray:none;stroke-opacity:1" id="path3975-6-6-4" cx="-350.5" cy="11" rx="5.5" ry="3.095" transform="scale(-1,1)"/><path id="path3045" d="m 151,9 v 5.5 l -2,-2 -2.5,2.5 -0.65587,-0.655869 L 145,13.5 l 2.5,-2.5 -2,-2 z" style="fill:#fff;fill-opacity:1;stroke:none"/><path style="fill:#fff;fill-opacity:1;stroke:none" id="path3047" d="m 137,9 h 5.5 l -2,2 2.5,2.5 -1.5,1.5 -2.5,-2.5 -2,2 z"/><path id="path3049" d="m 137,23 v -5.5 l 2,2 2.5,-2.5 1.5,1.5 -2.5,2.5 2,2 z" style="fill:#fff;fill-opacity:1;stroke:none"/><path style="fill:#fff;fill-opacity:1;stroke:none" id="path3051" d="m 151,23 h -5.5 l 2,-2 -2.5,-2.5 0.65587,-0.65587 L 146.5,17 l 2.5,2.5 2,-2 z"/><path id="path47" d="m 201,9 h 7 v 2 h -5 v 10 h 10 v -5 h 2 v 7 h -14 z" style="fill:#fff;fill-opacity:1;stroke:none"/><path id="path49" d="m 207,15.5 4.5,-4.5 -2,-2 h 5.5 v 5.5 l -2,-2 -4.5,4.5 H 207 Z" style="fill:#fff;fill-opacity:1;stroke:none"/><path id="path4557" d="m 177,-17 v -5.5 l 2,2 2.5,-2.5 0.65587,0.655869 L 183,-21.5 l -2.5,2.5 2,2 z" style="fill:#000;fill-opacity:1;stroke:none"/><path style="fill:#000;fill-opacity:1;stroke:none" id="path4559" d="m 175,-17 h -5.5 l 2,-2 -2.5,-2.5 1.5,-1.5 2.5,2.5 2,-2 z"/><path id="path4561" d="m 175,-15 v 5.5 l -2,-2 -2.5,2.5 -1.5,-1.5 2.5,-2.5 -2,-2 z" style="fill:#000;fill-opacity:1;stroke:none"/><path style="fill:#000;fill-opacity:1;stroke:none" id="path4563" d="m 177,-15 h 5.5 l -2,2 2.5,2.5 -0.65587,0.65587 L 181.5,-9 l -2.5,-2.5 -2,2 z"/></g></svg>